<?xml version="1.0" ?><svg viewBox="0 0 512 512" xmlns="http://www.w3.org/2000/svg"><g data-name="filled outline" id="filled_outline"><polygon points="352 184 349.74 288 349.63 292.9 349.21 312 336 344 320.36 484.8 320 488 192 488 191.94 487.5 176 344 160 312 160 184 352 184" style="fill:#eaeae8"/><path d="M182.22,400,176,344l-16-32V292.11l24,8a75.981,75.981,0,0,0,48,0,75.8,75.8,0,0,1,48,0,75.935,75.935,0,0,0,48,0l21.63-7.21-.42,19.1L336,344l-6.22,56Z" style="fill:#8f563b"/><rect height="48" style="fill:#878787" width="128" x="192" y="176"/><rect height="32" style="fill:#dbdbdb" width="16" x="200" y="144"/><path d="M182.22,400h0L176,344a77.757,77.757,0,0,1,80,0v64Z" style="fill:#744630"/><path d="M256,400V344a77.757,77.757,0,0,1,80,0l-6.22,56Z" style="fill:#875138"/><path d="M256,248l-9.116,13.674A10.956,10.956,0,0,0,251.1,277.55h0a10.959,10.959,0,0,0,9.8,0h0a10.956,10.956,0,0,0,4.216-15.876Z" style="fill:#744630"/><path d="M298.958,240l-9.115,13.674a10.955,10.955,0,0,0,4.216,15.876h0a10.957,10.957,0,0,0,9.8,0h0a10.955,10.955,0,0,0,4.216-15.876Z" style="fill:#744630"/><path d="M210.958,224l-9.115,13.674a10.955,10.955,0,0,0,4.216,15.876h0a10.957,10.957,0,0,0,9.8,0h0a10.955,10.955,0,0,0,4.216-15.876Z" style="fill:#744630"/><polygon points="329.78 400 320 488 192 488 182.22 400 329.78 400" style="fill:#ebebeb"/><polygon points="320 400 312 480 200 480 192 400 320 400" style="fill:#dbdbdb"/><path d="M178.892,155.268l-12.915-3.528-40.1-10.024A39.447,39.447,0,0,1,135.447,64H176V80H135.447a23.447,23.447,0,0,0-5.687,46.194l40.18,10.045.168.044,13,3.55Z" style="fill:#3775a4"/><path d="M333,184H179a11,11,0,0,1-11-11V56H344V173A11,11,0,0,1,333,184Z" style="fill:#a8a8a8"/><path d="M160,56H352a32,32,0,0,0-32-32H192a32,32,0,0,0-32,32Z" style="fill:#cbcbcb"/><rect height="40" style="fill:#dbdbdb" width="16" x="200" y="56"/><rect height="16" style="fill:#dbdbdb" width="16" x="200" y="112"/><path d="M96,103.447a39.39,39.39,0,0,0,29.879,38.269L160,150.246V173a18.9,18.9,0,0,0,.261,3H160a8,8,0,0,0-8,8V312a7.994,7.994,0,0,0,.845,3.578L168.206,346.3l15.843,142.581A8,8,0,0,0,192,496H320a8,8,0,0,0,7.951-7.117l15.875-142.875,12.78-30.955a8,8,0,0,0,.6-2.879l2.788-128A8,8,0,0,0,352,176h-.261a18.9,18.9,0,0,0,.261-3V64a8,8,0,0,0,8-8,40.045,40.045,0,0,0-40-40H192a40.045,40.045,0,0,0-40,40,8,8,0,0,0,8,8H135.447A39.492,39.492,0,0,0,96,103.447ZM248,480H199.16l-8-72H248Zm0-88H189.383l-4.843-43.583a69.593,69.593,0,0,1,63.46.276Zm64.84,88H264V408h56.84Zm9.777-88H264V348.693a69.587,69.587,0,0,1,63.46-.276ZM192,32H320a24.042,24.042,0,0,1,22.629,16H169.371A24.042,24.042,0,0,1,192,32Zm24,144V144H200v32H179a3,3,0,0,1-3-3V64h24V96h16V64H336V173a3,3,0,0,1-3,3Zm96,16v24H200V192Zm-144,0h16v32a8,8,0,0,0,8,8h13.625l-3.782,5.674a10.956,10.956,0,1,0,18.231,0L216.292,232H320a8,8,0,0,0,8-8V192h15.824l-2.071,95.089-16.283,5.427a68.319,68.319,0,0,1-42.94,0,84.416,84.416,0,0,0-53.06,0,68.319,68.319,0,0,1-42.94,0L168,286.34Zm0,111.2,13.47,4.49a84.416,84.416,0,0,0,53.06,0,68.319,68.319,0,0,1,42.94,0,84.421,84.421,0,0,0,53.06,0l10.853-3.618-.136,6.253-9.289,22.5A85.539,85.539,0,0,0,256,334.834a85.544,85.544,0,0,0-76.514-1.751L168,310.111Zm-8-169.451-30.24-7.56A23.447,23.447,0,0,1,135.447,80H160Z"/><rect height="16" width="16" x="200" y="112"/><path d="M251.1,277.55a10.956,10.956,0,0,0,14.016-15.876L256,248l-9.116,13.674A10.956,10.956,0,0,0,251.1,277.55Z"/><path d="M294.059,269.55a10.956,10.956,0,0,0,14.015-15.876L298.958,240l-9.115,13.674A10.955,10.955,0,0,0,294.059,269.55Z"/></g></svg>